<svg xmlns="http://www.w3.org/2000/svg" xmlns:xlink="http://www.w3.org/1999/xlink" zoomAndPan="magnify" preserveAspectRatio="xMidYMid meet" version="1.0" viewBox="0.92 0 1022.18 108.5"><defs><g/><clipPath id="c47cf3fc4b"><path d="M 0.925781 0 L 1023.074219 0 L 1023.074219 108.5 L 0.925781 108.5 Z M 0.925781 0 " clip-rule="nonzero"/></clipPath><linearGradient x1="0" gradientTransform="matrix(0.74828, 0, 0, 0.74828, 0.925466, 0.00000199541)" y1="0" x2="1365.999943" gradientUnits="userSpaceOnUse" y2="0" id="e5ca9c41ed"><stop stop-opacity="1" stop-color="rgb(100%, 96.899414%, 67.799377%)" offset="0"/><stop stop-opacity="1" stop-color="rgb(100%, 96.77887%, 67.915344%)" offset="0.0078125"/><stop stop-opacity="1" stop-color="rgb(100%, 96.540833%, 68.147278%)" offset="0.015625"/><stop stop-opacity="1" stop-color="rgb(100%, 96.30127%, 68.380737%)" offset="0.0234375"/><stop stop-opacity="1" stop-color="rgb(100%, 96.061707%, 68.614197%)" offset="0.03125"/><stop stop-opacity="1" stop-color="rgb(100%, 95.823669%, 68.84613%)" offset="0.0390625"/><stop stop-opacity="1" stop-color="rgb(100%, 95.584106%, 69.07959%)" offset="0.046875"/><stop stop-opacity="1" stop-color="rgb(100%, 95.344543%, 69.311523%)" offset="0.0546875"/><stop stop-opacity="1" stop-color="rgb(100%, 95.106506%, 69.544983%)" offset="0.0625"/><stop stop-opacity="1" stop-color="rgb(100%, 94.866943%, 69.778442%)" offset="0.0703125"/><stop stop-opacity="1" stop-color="rgb(100%, 94.62738%, 70.010376%)" offset="0.078125"/><stop stop-opacity="1" stop-color="rgb(100%, 94.387817%, 70.243835%)" offset="0.0859375"/><stop stop-opacity="1" stop-color="rgb(100%, 94.14978%, 70.475769%)" offset="0.09375"/><stop stop-opacity="1" stop-color="rgb(100%, 93.910217%, 70.709229%)" offset="0.101562"/><stop stop-opacity="1" stop-color="rgb(100%, 93.670654%, 70.941162%)" offset="0.109375"/><stop stop-opacity="1" stop-color="rgb(100%, 93.432617%, 71.174622%)" offset="0.117188"/><stop stop-opacity="1" stop-color="rgb(100%, 93.193054%, 71.408081%)" offset="0.125"/><stop stop-opacity="1" stop-color="rgb(100%, 92.953491%, 71.640015%)" offset="0.132812"/><stop stop-opacity="1" stop-color="rgb(100%, 92.715454%, 71.873474%)" offset="0.140625"/><stop stop-opacity="1" stop-color="rgb(100%, 92.475891%, 72.105408%)" offset="0.148438"/><stop stop-opacity="1" stop-color="rgb(100%, 92.236328%, 72.338867%)" offset="0.15625"/><stop stop-opacity="1" stop-color="rgb(100%, 91.998291%, 72.570801%)" offset="0.164062"/><stop stop-opacity="1" stop-color="rgb(100%, 91.758728%, 72.80426%)" offset="0.171875"/><stop stop-opacity="1" stop-color="rgb(100%, 91.519165%, 73.03772%)" offset="0.179688"/><stop stop-opacity="1" stop-color="rgb(100%, 91.281128%, 73.269653%)" offset="0.1875"/><stop stop-opacity="1" stop-color="rgb(100%, 91.041565%, 73.503113%)" offset="0.195312"/><stop stop-opacity="1" stop-color="rgb(100%, 90.802002%, 73.735046%)" offset="0.203125"/><stop stop-opacity="1" stop-color="rgb(100%, 90.563965%, 73.968506%)" offset="0.210938"/><stop stop-opacity="1" stop-color="rgb(100%, 90.324402%, 74.200439%)" offset="0.21875"/><stop stop-opacity="1" stop-color="rgb(100%, 90.084839%, 74.433899%)" offset="0.226562"/><stop stop-opacity="1" stop-color="rgb(100%, 89.846802%, 74.667358%)" offset="0.234375"/><stop stop-opacity="1" stop-color="rgb(100%, 89.607239%, 74.899292%)" offset="0.242188"/><stop stop-opacity="1" stop-color="rgb(100%, 89.367676%, 75.132751%)" offset="0.25"/><stop stop-opacity="1" stop-color="rgb(100%, 89.129639%, 75.364685%)" offset="0.257812"/><stop stop-opacity="1" stop-color="rgb(100%, 88.890076%, 75.598145%)" offset="0.265625"/><stop stop-opacity="1" stop-color="rgb(100%, 88.650513%, 75.830078%)" offset="0.273438"/><stop stop-opacity="1" stop-color="rgb(100%, 88.412476%, 76.063538%)" offset="0.28125"/><stop stop-opacity="1" stop-color="rgb(100%, 88.172913%, 76.296997%)" offset="0.289062"/><stop stop-opacity="1" stop-color="rgb(100%, 87.93335%, 76.528931%)" offset="0.296875"/><stop stop-opacity="1" stop-color="rgb(100%, 87.695312%, 76.76239%)" offset="0.304688"/><stop stop-opacity="1" stop-color="rgb(100%, 87.45575%, 76.994324%)" offset="0.3125"/><stop stop-opacity="1" stop-color="rgb(100%, 87.216187%, 77.227783%)" offset="0.320312"/><stop stop-opacity="1" stop-color="rgb(100%, 86.978149%, 77.461243%)" offset="0.328125"/><stop stop-opacity="1" stop-color="rgb(100%, 86.738586%, 77.693176%)" offset="0.335938"/><stop stop-opacity="1" stop-color="rgb(100%, 86.499023%, 77.926636%)" offset="0.34375"/><stop stop-opacity="1" stop-color="rgb(100%, 86.260986%, 78.158569%)" offset="0.351562"/><stop stop-opacity="1" stop-color="rgb(100%, 86.021423%, 78.392029%)" offset="0.359375"/><stop stop-opacity="1" stop-color="rgb(100%, 85.78186%, 78.623962%)" offset="0.367188"/><stop stop-opacity="1" stop-color="rgb(100%, 85.543823%, 78.857422%)" offset="0.375"/><stop stop-opacity="1" stop-color="rgb(100%, 85.30426%, 79.090881%)" offset="0.382812"/><stop stop-opacity="1" stop-color="rgb(100%, 85.064697%, 79.322815%)" offset="0.390625"/><stop stop-opacity="1" stop-color="rgb(100%, 84.82666%, 79.556274%)" offset="0.398438"/><stop stop-opacity="1" stop-color="rgb(100%, 84.587097%, 79.788208%)" offset="0.40625"/><stop stop-opacity="1" stop-color="rgb(100%, 84.347534%, 80.021667%)" offset="0.414062"/><stop stop-opacity="1" stop-color="rgb(100%, 84.109497%, 80.253601%)" offset="0.421875"/><stop stop-opacity="1" stop-color="rgb(100%, 83.869934%, 80.487061%)" offset="0.429688"/><stop stop-opacity="1" stop-color="rgb(100%, 83.630371%, 80.72052%)" offset="0.4375"/><stop stop-opacity="1" stop-color="rgb(100%, 83.392334%, 80.952454%)" offset="0.445312"/><stop stop-opacity="1" stop-color="rgb(100%, 83.152771%, 81.185913%)" offset="0.453125"/><stop stop-opacity="1" stop-color="rgb(100%, 82.913208%, 81.417847%)" offset="0.460938"/><stop stop-opacity="1" stop-color="rgb(100%, 82.675171%, 81.651306%)" offset="0.46875"/><stop stop-opacity="1" stop-color="rgb(100%, 82.435608%, 81.88324%)" offset="0.476562"/><stop stop-opacity="1" stop-color="rgb(100%, 82.196045%, 82.116699%)" offset="0.484375"/><stop stop-opacity="1" stop-color="rgb(100%, 81.958008%, 82.350159%)" offset="0.492188"/><stop stop-opacity="1" stop-color="rgb(100%, 81.718445%, 82.582092%)" offset="0.5"/><stop stop-opacity="1" stop-color="rgb(100%, 81.478882%, 82.815552%)" offset="0.507812"/><stop stop-opacity="1" stop-color="rgb(100%, 81.240845%, 83.047485%)" offset="0.515625"/><stop stop-opacity="1" stop-color="rgb(100%, 81.001282%, 83.280945%)" offset="0.523438"/><stop stop-opacity="1" stop-color="rgb(100%, 80.761719%, 83.512878%)" offset="0.53125"/><stop stop-opacity="1" stop-color="rgb(100%, 80.523682%, 83.746338%)" offset="0.539062"/><stop stop-opacity="1" stop-color="rgb(100%, 80.284119%, 83.979797%)" offset="0.546875"/><stop stop-opacity="1" stop-color="rgb(100%, 80.044556%, 84.211731%)" offset="0.554688"/><stop stop-opacity="1" stop-color="rgb(100%, 79.806519%, 84.44519%)" offset="0.5625"/><stop stop-opacity="1" stop-color="rgb(100%, 79.566956%, 84.677124%)" offset="0.570312"/><stop stop-opacity="1" stop-color="rgb(100%, 79.327393%, 84.910583%)" offset="0.578125"/><stop stop-opacity="1" stop-color="rgb(100%, 79.08783%, 85.144043%)" offset="0.585938"/><stop stop-opacity="1" stop-color="rgb(100%, 78.849792%, 85.375977%)" offset="0.59375"/><stop stop-opacity="1" stop-color="rgb(100%, 78.610229%, 85.609436%)" offset="0.601562"/><stop stop-opacity="1" stop-color="rgb(100%, 78.370667%, 85.84137%)" offset="0.609375"/><stop stop-opacity="1" stop-color="rgb(100%, 78.132629%, 86.074829%)" offset="0.617188"/><stop stop-opacity="1" stop-color="rgb(100%, 77.893066%, 86.306763%)" offset="0.625"/><stop stop-opacity="1" stop-color="rgb(100%, 77.653503%, 86.540222%)" offset="0.632812"/><stop stop-opacity="1" stop-color="rgb(100%, 77.415466%, 86.773682%)" offset="0.640625"/><stop stop-opacity="1" stop-color="rgb(100%, 77.175903%, 87.005615%)" offset="0.648438"/><stop stop-opacity="1" stop-color="rgb(100%, 76.93634%, 87.239075%)" offset="0.65625"/><stop stop-opacity="1" stop-color="rgb(100%, 76.698303%, 87.471008%)" offset="0.664062"/><stop stop-opacity="1" stop-color="rgb(100%, 76.45874%, 87.704468%)" offset="0.671875"/><stop stop-opacity="1" stop-color="rgb(100%, 76.219177%, 87.936401%)" offset="0.679688"/><stop stop-opacity="1" stop-color="rgb(100%, 75.98114%, 88.169861%)" offset="0.6875"/><stop stop-opacity="1" stop-color="rgb(100%, 75.741577%, 88.40332%)" offset="0.695312"/><stop stop-opacity="1" stop-color="rgb(100%, 75.502014%, 88.635254%)" offset="0.703125"/><stop stop-opacity="1" stop-color="rgb(100%, 75.263977%, 88.868713%)" offset="0.710938"/><stop stop-opacity="1" stop-color="rgb(100%, 75.024414%, 89.100647%)" offset="0.71875"/><stop stop-opacity="1" stop-color="rgb(100%, 74.784851%, 89.334106%)" offset="0.726562"/><stop stop-opacity="1" stop-color="rgb(100%, 74.546814%, 89.56604%)" offset="0.734375"/><stop stop-opacity="1" stop-color="rgb(100%, 74.307251%, 89.7995%)" offset="0.742188"/><stop stop-opacity="1" stop-color="rgb(100%, 74.067688%, 90.032959%)" offset="0.75"/><stop stop-opacity="1" stop-color="rgb(100%, 73.829651%, 90.264893%)" offset="0.757812"/><stop stop-opacity="1" stop-color="rgb(100%, 73.590088%, 90.498352%)" offset="0.765625"/><stop stop-opacity="1" stop-color="rgb(100%, 73.350525%, 90.730286%)" offset="0.773438"/><stop stop-opacity="1" stop-color="rgb(100%, 73.112488%, 90.963745%)" offset="0.78125"/><stop stop-opacity="1" stop-color="rgb(100%, 72.872925%, 91.197205%)" offset="0.789062"/><stop stop-opacity="1" stop-color="rgb(100%, 72.633362%, 91.429138%)" offset="0.796875"/><stop stop-opacity="1" stop-color="rgb(100%, 72.395325%, 91.662598%)" offset="0.804688"/><stop stop-opacity="1" stop-color="rgb(100%, 72.155762%, 91.894531%)" offset="0.8125"/><stop stop-opacity="1" stop-color="rgb(100%, 71.916199%, 92.127991%)" offset="0.820312"/><stop stop-opacity="1" stop-color="rgb(100%, 71.678162%, 92.359924%)" offset="0.828125"/><stop stop-opacity="1" stop-color="rgb(100%, 71.438599%, 92.593384%)" offset="0.835938"/><stop stop-opacity="1" stop-color="rgb(100%, 71.199036%, 92.826843%)" offset="0.84375"/><stop stop-opacity="1" stop-color="rgb(100%, 70.960999%, 93.058777%)" offset="0.851562"/><stop stop-opacity="1" stop-color="rgb(100%, 70.721436%, 93.292236%)" offset="0.859375"/><stop stop-opacity="1" stop-color="rgb(100%, 70.481873%, 93.52417%)" offset="0.867188"/><stop stop-opacity="1" stop-color="rgb(100%, 70.243835%, 93.757629%)" offset="0.875"/><stop stop-opacity="1" stop-color="rgb(100%, 70.004272%, 93.989563%)" offset="0.882812"/><stop stop-opacity="1" stop-color="rgb(100%, 69.764709%, 94.223022%)" offset="0.890625"/><stop stop-opacity="1" stop-color="rgb(100%, 69.526672%, 94.456482%)" offset="0.898438"/><stop stop-opacity="1" stop-color="rgb(100%, 69.287109%, 94.688416%)" offset="0.90625"/><stop stop-opacity="1" stop-color="rgb(100%, 69.047546%, 94.921875%)" offset="0.914062"/><stop stop-opacity="1" stop-color="rgb(100%, 68.809509%, 95.153809%)" offset="0.921875"/><stop stop-opacity="1" stop-color="rgb(100%, 68.569946%, 95.387268%)" offset="0.929688"/><stop stop-opacity="1" stop-color="rgb(100%, 68.330383%, 95.619202%)" offset="0.9375"/><stop stop-opacity="1" stop-color="rgb(100%, 68.092346%, 95.852661%)" offset="0.945312"/><stop stop-opacity="1" stop-color="rgb(100%, 67.852783%, 96.086121%)" offset="0.953125"/><stop stop-opacity="1" stop-color="rgb(100%, 67.61322%, 96.318054%)" offset="0.960938"/><stop stop-opacity="1" stop-color="rgb(100%, 67.375183%, 96.551514%)" offset="0.96875"/><stop stop-opacity="1" stop-color="rgb(100%, 67.13562%, 96.783447%)" offset="0.976562"/><stop stop-opacity="1" stop-color="rgb(100%, 66.896057%, 97.016907%)" offset="0.984375"/><stop stop-opacity="1" stop-color="rgb(100%, 66.65802%, 97.24884%)" offset="0.992188"/><stop stop-opacity="1" stop-color="rgb(100%, 66.418457%, 97.4823%)" offset="1"/></linearGradient></defs><g clip-path="url(#c47cf3fc4b)"><path fill="#ffffff" d="M 0.925781 0 L 1023.074219 0 L 1023.074219 108.5 L 0.925781 108.5 Z M 0.925781 0 " fill-opacity="1" fill-rule="nonzero"/><path fill="url(#e5ca9c41ed)" d="M 0.925781 0 L 0.925781 108.5 L 1023.074219 108.5 L 1023.074219 0 Z M 0.925781 0 " fill-rule="nonzero"/></g><g fill="#000000" fill-opacity="1"><g transform="translate(279.830748, 67.220272)"><g><path d="M 24.617188 0 L 24.617188 -24.074219 L 18.585938 -24.074219 L 18.585938 -5.484375 L 15.59375 -5.484375 L 15.59375 -24.074219 L 9.566406 -24.074219 L 9.566406 -5.484375 L 6.570312 -5.484375 L 6.570312 -24.074219 L 0.542969 -24.074219 L 0.542969 -18.550781 L 1.734375 -18.550781 L 1.734375 0 Z M 24.617188 0 "/></g></g></g><g fill="#000000" fill-opacity="1"><g transform="translate(308.559961, 67.220272)"><g><path d="M 6.964844 0 L 6.964844 -24.074219 L 0.9375 -24.074219 L 0.9375 0 Z M 6.964844 0 "/></g></g></g><g fill="#000000" fill-opacity="1"><g transform="translate(319.640391, 67.220272)"><g><path d="M 18.625 -18.550781 L 18.625 -24.074219 L 0.542969 -24.074219 L 0.542969 -18.550781 L 6.605469 -18.550781 L 6.605469 0 L 12.632812 0 L 12.632812 -18.550781 Z M 18.625 -18.550781 "/></g></g></g><g fill="#000000" fill-opacity="1"><g transform="translate(341.98139, 67.220272)"><g><path d="M 19.019531 0 L 19.019531 -24.074219 L 12.992188 -24.074219 L 12.992188 -14.761719 L 6.964844 -14.761719 L 6.964844 -24.074219 L 0.9375 -24.074219 L 0.9375 0 L 6.964844 0 L 6.964844 -9.457031 L 12.992188 -9.457031 L 12.992188 0 Z M 19.019531 0 "/></g></g></g><g fill="#000000" fill-opacity="1"><g transform="translate(365.116412, 67.220272)"><g/></g></g><g fill="#000000" fill-opacity="1"><g transform="translate(380.924842, 67.220272)"><g><path d="M 18.660156 0 L 18.660156 -24.074219 L 0.578125 -24.074219 L 0.578125 -18.550781 L 1.769531 -18.550781 L 1.769531 -5.484375 L 0.578125 -5.484375 L 0.578125 0 Z M 12.632812 -5.484375 L 6.605469 -5.484375 L 6.605469 -18.550781 L 12.632812 -18.550781 Z M 12.632812 -5.484375 "/></g></g></g><g fill="#000000" fill-opacity="1"><g transform="translate(403.698948, 67.220272)"><g><path d="M 19.019531 0 L 19.019531 -24.074219 L 0.9375 -24.074219 L 0.9375 0 L 6.964844 0 L 6.964844 -6.714844 L 12.992188 -6.714844 L 12.992188 0 Z M 12.992188 -12.199219 L 6.964844 -12.199219 L 6.964844 -18.550781 L 12.992188 -18.550781 Z M 12.992188 -12.199219 "/></g></g></g><g fill="#000000" fill-opacity="1"><g transform="translate(426.83397, 67.220272)"><g><path d="M 6.964844 0 L 6.964844 -24.074219 L 0.9375 -24.074219 L 0.9375 0 Z M 6.964844 0 "/></g></g></g><g fill="#000000" fill-opacity="1"><g transform="translate(437.914392, 67.220272)"><g><path d="M 18.949219 0 L 18.949219 -5.484375 L 6.964844 -5.484375 L 6.964844 -24.074219 L 0.9375 -24.074219 L 0.9375 0 Z M 18.949219 0 "/></g></g></g><g fill="#000000" fill-opacity="1"><g transform="translate(460.760674, 67.220272)"><g><path d="M 19.777344 -18.550781 L 19.777344 -24.074219 L 12.558594 -24.074219 L 12.558594 -14.796875 L 7.761719 -14.796875 L 7.761719 -24.074219 L 0.542969 -24.074219 L 0.542969 -18.550781 L 1.734375 -18.550781 L 1.734375 -9.492188 L 7.144531 -9.492188 L 7.144531 0 L 13.175781 0 L 13.175781 -9.492188 L 18.585938 -9.492188 L 18.585938 -18.550781 Z M 19.777344 -18.550781 "/></g></g></g><g fill="#000000" fill-opacity="1"><g transform="translate(484.256604, 67.220272)"><g/></g></g><g fill="#000000" fill-opacity="1"><g transform="translate(500.065025, 67.220272)"><g><path d="M 18.949219 0 L 18.949219 -5.484375 L 6.964844 -5.484375 L 6.964844 -24.074219 L 0.9375 -24.074219 L 0.9375 0 Z M 18.949219 0 "/></g></g></g><g fill="#000000" fill-opacity="1"><g transform="translate(522.911307, 67.220272)"><g><path d="M 6.964844 0 L 6.964844 -24.074219 L 0.9375 -24.074219 L 0.9375 0 Z M 6.964844 0 "/></g></g></g><g fill="#000000" fill-opacity="1"><g transform="translate(533.991738, 67.220272)"><g><path d="M 19.816406 -18.550781 L 19.816406 -24.074219 L 12.597656 -24.074219 L 12.597656 -5.484375 L 7.761719 -5.484375 L 7.761719 -24.074219 L 0.542969 -24.074219 L 0.542969 -18.550781 L 1.734375 -18.550781 L 1.734375 0 L 18.625 0 L 18.625 -18.550781 Z M 19.816406 -18.550781 "/></g></g></g><g fill="#000000" fill-opacity="1"><g transform="translate(557.523751, 67.220272)"><g><path d="M 18.949219 0 L 18.949219 -5.484375 L 6.964844 -5.484375 L 6.964844 -9.457031 L 18.949219 -9.457031 L 18.949219 -14.761719 L 6.964844 -14.761719 L 6.964844 -18.550781 L 18.949219 -18.550781 L 18.949219 -24.074219 L 0.9375 -24.074219 L 0.9375 0 Z M 18.949219 0 "/></g></g></g><g fill="#000000" fill-opacity="1"><g transform="translate(580.586588, 67.220272)"><g/></g></g><g fill="#000000" fill-opacity="1"><g transform="translate(596.395028, 67.220272)"><g><path d="M 19.019531 0 L 19.019531 -14.761719 L 6.964844 -14.761719 L 6.964844 -18.550781 L 19.019531 -18.550781 L 19.019531 -24.074219 L 0.9375 -24.074219 L 0.9375 -9.457031 L 12.992188 -9.457031 L 12.992188 -5.484375 L 0.9375 -5.484375 L 0.9375 0 Z M 19.019531 0 "/></g></g></g><g fill="#000000" fill-opacity="1"><g transform="translate(619.493948, 67.220272)"><g><path d="M 18.949219 0 L 18.949219 -5.484375 L 6.964844 -5.484375 L 6.964844 -9.457031 L 18.949219 -9.457031 L 18.949219 -14.761719 L 6.964844 -14.761719 L 6.964844 -18.550781 L 18.949219 -18.550781 L 18.949219 -24.074219 L 0.9375 -24.074219 L 0.9375 0 Z M 18.949219 0 "/></g></g></g><g fill="#000000" fill-opacity="1"><g transform="translate(642.556785, 67.220272)"><g><path d="M 19.019531 0 L 19.019531 -14.761719 L 6.964844 -14.761719 L 6.964844 -18.550781 L 19.019531 -18.550781 L 19.019531 -24.074219 L 0.9375 -24.074219 L 0.9375 -9.457031 L 12.992188 -9.457031 L 12.992188 -5.484375 L 0.9375 -5.484375 L 0.9375 0 Z M 19.019531 0 "/></g></g></g><g fill="#000000" fill-opacity="1"><g transform="translate(665.655706, 67.220272)"><g><path d="M 19.019531 0 L 19.019531 -14.761719 L 6.964844 -14.761719 L 6.964844 -18.550781 L 19.019531 -18.550781 L 19.019531 -24.074219 L 0.9375 -24.074219 L 0.9375 -9.457031 L 12.992188 -9.457031 L 12.992188 -5.484375 L 0.9375 -5.484375 L 0.9375 0 Z M 19.019531 0 "/></g></g></g><g fill="#000000" fill-opacity="1"><g transform="translate(688.754626, 67.220272)"><g><path d="M 6.964844 0 L 6.964844 -24.074219 L 0.9375 -24.074219 L 0.9375 0 Z M 6.964844 0 "/></g></g></g><g fill="#000000" fill-opacity="1"><g transform="translate(699.835057, 67.220272)"><g><path d="M 19.019531 0 L 19.019531 -24.074219 L 0.9375 -24.074219 L 0.9375 0 Z M 12.992188 -5.484375 L 6.964844 -5.484375 L 6.964844 -18.550781 L 12.992188 -18.550781 Z M 12.992188 -5.484375 "/></g></g></g><g fill="#000000" fill-opacity="1"><g transform="translate(722.970061, 67.220272)"><g><path d="M 18.625 0 L 18.625 -24.074219 L 0.542969 -24.074219 L 0.542969 -18.550781 L 1.734375 -18.550781 L 1.734375 0 L 6.570312 0 L 6.570312 -18.550781 L 12.597656 -18.550781 L 12.597656 0 Z M 18.625 0 "/></g></g></g><g fill="#000000" fill-opacity="1"><g transform="translate(745.708074, 67.220272)"><g><path d="M 18.625 0 L 18.625 -24.074219 L 0.542969 -24.074219 L 0.542969 -18.550781 L 1.734375 -18.550781 L 1.734375 0 L 6.570312 0 L 6.570312 -18.550781 L 12.597656 -18.550781 L 12.597656 0 Z M 18.625 0 "/></g></g></g><g fill="#000000" fill-opacity="1"><g transform="translate(768.446088, 67.220272)"><g><path d="M 19.019531 0 L 19.019531 -14.761719 L 6.964844 -14.761719 L 6.964844 -18.550781 L 19.019531 -18.550781 L 19.019531 -24.074219 L 0.9375 -24.074219 L 0.9375 -9.457031 L 12.992188 -9.457031 L 12.992188 -5.484375 L 0.9375 -5.484375 L 0.9375 0 Z M 19.019531 0 "/></g></g></g></svg>